<svg width="71px" height="60px" viewBox="0 0 71 60" version="1.1" xmlns="http://www.w3.org/2000/svg" xmlns:xlink="http://www.w3.org/1999/xlink">
    <g id="Symbols" stroke="none" stroke-width="1" fill="none" fill-rule="evenodd">
        <g id="Elemente/Icons/Penrose-sw" transform="translate(-19.000000, -28.000000)" fill="#FFFFFF">
            <g>
                <path d="M32.8168261,56.0643857 L25.4579855,43.4929571 C25.4197246,43.4285286 25.3718986,43.3703857 25.3145072,43.3201 L21.2604493,36.7562429 L24.6337826,30.9686714 L29.3191449,39.0489571 L35.9845072,50.5502429 L32.8168261,56.0643857 Z M57.2288551,35.7363857 L37.1976957,35.7363857 C36.9139275,35.7363857 36.6508841,35.8856714 36.509,36.1261 C36.3671159,36.3681 36.3655217,36.6666714 36.5042174,36.9102429 L40.5933478,44.0005286 C40.5933478,44.0005286 40.594942,44.0021 40.594942,44.0021 L43.9172609,49.7629571 L37.365087,49.7629571 L26.0876957,30.3102429 L54.0484203,30.3102429 L57.2288551,35.7363857 Z M54.3656667,42.8266714 L41.7507391,42.8266714 L38.5671159,37.3078143 L57.2942174,37.3078143 L54.3656667,42.8266714 Z M45.2866812,51.3343857 C45.5704493,51.3343857 45.8334928,51.1866714 45.9753768,50.9446714 C46.1188551,50.7026714 46.1204493,50.4041 45.9801594,50.1605286 L42.6562464,44.3981 L54.8487101,44.3981 C55.1452319,44.3981 55.4178406,44.2362429 55.554942,43.9769571 L59.2487101,37.0123857 C59.3603043,36.8772429 59.4368261,36.7106714 59.4368261,36.5221 C59.4368261,36.3036714 59.3491449,36.1072429 59.2040725,35.9642429 L55.1994348,29.1316714 C55.0575507,28.8896714 54.7945072,28.7388143 54.5091449,28.7388143 L24.715087,28.7388143 C24.6975507,28.7388143 24.6832029,28.7513857 24.6656667,28.7529571 C24.629,28.7482429 24.5891449,28.7388143 24.5556667,28.7388143 C24.2703043,28.7388143 24.0072609,28.8896714 23.8653768,29.1332429 L19.6423333,36.3775286 C19.4988551,36.6258143 19.5020435,36.9322429 19.6534928,37.1773857 L24.0487101,44.2943857 C24.0837826,44.3493857 24.1252319,44.3996714 24.1746522,44.4421 L32.132913,58.0396714 C32.2747971,58.2832429 32.5378406,58.4325286 32.8232029,58.4325286 L32.8263913,58.4325286 C33.1117536,58.4309571 33.3763913,58.2801 33.5166812,58.0333857 L37.3666812,51.3343857 L45.2866812,51.3343857 Z" id="Fill-4"></path>
                <path d="M58.3988406,86.0373429 L50.8933333,86.0373429 L62.3269565,66.4589143 L69.6044928,66.5029143 L58.3988406,86.0373429 Z M38.7789855,55.5264857 L48.6821739,72.9237714 C48.8224638,73.1704857 49.0855072,73.3229143 49.3724638,73.3244857 L49.3724638,73.3244857 L49.3772464,73.3244857 C49.6626087,73.3244857 49.9256522,73.1736286 50.0675362,72.9316286 L54.2028986,65.8539143 C54.2028986,65.8539143 54.2028986,65.8507714 54.2028986,65.8492 L57.4837681,60.2360571 L60.9384058,65.6873429 L56.0968116,73.9750571 L49.5127536,85.2516286 L35.4263768,61.2669143 L38.7789855,55.5264857 Z M52.6326087,65.3919143 L49.3852174,70.9484857 L40.1484058,54.7234857 L46.2589855,54.7234857 L52.6326087,65.3919143 Z M70.9723188,64.9393429 L62.3094203,64.8874857 L58.1310145,58.2937714 C57.9827536,58.0580571 57.6846377,57.9150571 57.4407246,57.9229143 C57.1617391,57.9276286 56.9050725,58.0784857 56.7647826,58.3173429 L53.5476812,63.8252 L47.402029,53.5386286 C47.2585507,53.2997714 46.9971014,53.1520571 46.7149275,53.1520571 L38.7869565,53.1520571 C38.507971,53.0954857 38.2465217,53.2982 38.1030435,53.5370571 C38.1030435,53.5386286 38.1014493,53.5386286 38.0998551,53.5402 C38.0998551,53.5402 38.0998551,53.5417714 38.0998551,53.5417714 C38.0998551,53.5417714 38.0982609,53.5433429 38.0966667,53.5449143 L33.8162319,60.8772 C33.6727536,61.1207714 33.6743478,61.4193429 33.8162319,61.6629143 L48.824058,87.2174857 C48.8910145,87.3306286 48.9882609,87.4202 49.0982609,87.4877714 C49.1046377,87.4909143 49.1094203,87.5003429 49.1157971,87.5050571 C49.2353623,87.5726286 49.3708696,87.6087714 49.5143478,87.6087714 L49.5143478,87.6087714 L58.8643478,87.6087714 C59.1528986,87.6087714 59.4175362,87.4563429 59.5594203,87.2096286 L71.6610145,66.1116286 C71.7997101,65.8696286 71.7981159,65.5726286 71.6562319,65.3306286 C71.515942,65.0902 71.2544928,64.9409143 70.9723188,64.9393429 L70.9723188,64.9393429 Z" id="Fill-6"></path>
                <path d="M72.2593188,61.5159857 L65.5987391,61.5269857 L76.1555507,44.0134143 C76.3022174,43.7714143 76.3054058,43.4697 76.1635217,43.2245571 C76.0216377,42.9794143 75.757,42.8269857 75.4716377,42.8269857 L67.0175797,42.8269857 L60.600913,42.8269857 L63.4561304,37.3081286 L86.9403333,37.3081286 L72.2593188,61.5159857 Z M67.4926522,44.3984143 L74.0703333,44.3984143 L64.2038116,60.7632714 L61.252942,55.7614143 L67.4926522,44.3984143 Z M83.8252609,30.3105571 L86.9722174,35.7367 L63.4306232,35.7367 L60.3091739,30.3105571 L83.8252609,30.3105571 Z M89.1419275,36.5271286 C89.1435217,36.4407 89.1036667,36.3605571 89.0765652,36.2757 C89.0606232,36.2301286 89.0638116,36.1782714 89.0383043,36.1342714 C89.0383043,36.1342714 89.0367101,36.1342714 89.0367101,36.1342714 L89.0367101,36.1327 L84.9794638,29.1351286 C84.8375797,28.8899857 84.5745362,28.7391286 84.2875797,28.7391286 L58.9381594,28.7391286 C58.9365652,28.7391286 58.9365652,28.7407 58.934971,28.7407 C58.934971,28.7407 58.9333768,28.7391286 58.9317826,28.7391286 C58.7978696,28.7391286 58.6767101,28.7799857 58.5667101,28.8365571 C58.5443913,28.8475571 58.5284493,28.8632714 58.5077246,28.8758429 C58.4120725,28.9371286 58.3371449,29.0125571 58.274971,29.1052714 C58.2685942,29.1147 58.2558406,29.1194143 58.2494638,29.1304143 C58.2462754,29.1367 58.2478696,29.1429857 58.243087,29.1508429 C58.1793188,29.2639857 58.1346812,29.3865571 58.1346812,29.5248429 C58.1346812,29.6615571 58.1777246,29.7825571 58.2398986,29.8941286 C58.243087,29.8988429 58.2414928,29.9067 58.2446812,29.9129857 L62.0627971,36.5412714 L58.589029,43.2559857 C58.463087,43.4995571 58.4742464,43.7902714 58.6177246,44.0228429 C58.7627971,44.2569857 59.021058,44.3984143 59.2984493,44.3984143 L65.6800435,44.3984143 L59.6380145,55.4015571 C59.5056957,55.6419857 59.5104783,55.9342714 59.6491739,56.1715571 L63.5023623,62.7008429 C63.5039565,62.7024143 63.5039565,62.7039857 63.5039565,62.7055571 C63.6458406,62.9491286 63.9104783,63.1015571 64.1958406,63.1015571 L64.1974348,63.1015571 L72.7136667,63.0858429 C72.9942464,63.0858429 73.2525072,62.9397 73.3959855,62.7039857 L89.0303333,36.9247 C89.0303333,36.9247 89.0303333,36.9231286 89.0319275,36.9215571 C89.0319275,36.9199857 89.0335217,36.9184143 89.0351159,36.9168429 C89.0845362,36.8335571 89.0941014,36.7408429 89.1084493,36.6497 C89.1148261,36.6072714 89.1419275,36.5695571 89.1419275,36.5271286 L89.1419275,36.5271286 Z" id="Fill-8"></path>
            </g>
        </g>
    </g>
</svg>